<?xml version="1.0" encoding="utf-8"?>
<!-- Generator: Adobe Illustrator 26.0.1, SVG Export Plug-In . SVG Version: 6.00 Build 0)  -->
<svg version="1.1" id="Layer_1" xmlns="http://www.w3.org/2000/svg" xmlns:xlink="http://www.w3.org/1999/xlink" x="0px" y="0px"
	 viewBox="0 0 96 96" style="enable-background:new 0 0 96 96;" xml:space="preserve">
<style type="text/css">
	.st0{fill:#FFBC00;}
</style>
<path class="st0" d="M80.54,25.93c-1.23-0.98-2.55-1.86-3.92-2.62c-4.15-2.3-8.52-3.5-13.31-2.36c-0.36,0.08-0.82-0.07-1.18-0.24
	c-2.1-1.03-4.14-2.17-6.26-3.14c-7.1-3.25-14.49-5.36-22.34-5.68c-2.71-0.11-5.4,0.04-8.06,0.64c-1.28,0.29-1.7,1.05-1.17,2.22
	c0.22,0.48,0.52,0.94,0.84,1.36c2.18,2.96,4.96,5.25,8.16,7c5.84,3.18,12.17,4.02,18.72,3.64c1.65-0.1,3.29-0.21,5.07-0.33
	c-0.99,2.11-1.53,4.21-1.29,6.56c-3.58,0.43-6.9,1.39-10.08,2.8c-9.61,4.25-15.84,11.38-18.36,21.64c-0.15,0.63-0.42,0.81-0.99,0.87
	c-2.83,0.29-5.41-0.39-7.83-1.84c-0.31-0.19-0.63-0.38-1-0.61c-0.29,4.83,3.56,10.17,8.59,11.39c-0.19,0.48-0.34,0.96-0.56,1.4
	c-2.45,4.98-4.9,9.96-7.37,14.93c-0.47,0.96-1.05,1.87-1.47,2.85c-0.36,0.84,0.09,1.91,0.86,2.45c0.77,0.54,1.64,0.52,2.43-0.08
	c0.33-0.26,0.64-0.55,0.94-0.85c3.96-3.96,7.79-8.05,11.89-11.85c6.1-5.66,12.72-10.66,20.13-14.51c4.09-2.13,8.33-3.85,12.91-4.59
	c1.02-0.17,2.08-0.16,3.18-0.24c-0.37,0.78-0.72,1.37-0.92,2.01c-0.47,1.5,0.37,2.89,1.84,3.11c1.17,0.17,2.02-0.43,2.71-1.26
	c3.01-3.64,4.18-7.87,3.71-12.52c-0.27-2.69-0.85-5.35-1.22-8.03c-0.34-2.53,0.35-4.68,2.62-6.13c0.38-0.24,0.74-0.52,1.1-0.79
	c1.13-0.85,1.95-1.94,2.51-3.23C82.17,28.19,81.99,27.08,80.54,25.93z M69.35,27.44c-0.25,0.04-0.57-0.05-0.79-0.18
	c-1.05-0.6-2.07-1.23-3.14-1.87c2.69-1.4,4.94-0.96,7.34,1.46C71.56,27.07,70.46,27.28,69.35,27.44z"/>
</svg>
